G04 #@! TF.FileFunction,Legend,Bot*
%FSLAX46Y46*%
G04 Gerber Fmt 4.6, Leading zero omitted, Abs format (unit mm)*
G04 Created by KiCad (PCBNEW 4.0.1-stable) date Sat 02 Jan 2016 05:35:57 PM EST*
%MOMM*%
G01*
G04 APERTURE LIST*
%ADD10C,0.100000*%
%ADD11C,0.300000*%
G04 APERTURE END LIST*
D10*
D11*
X158142856Y-104392857D02*
X158642856Y-104392857D01*
X158642856Y-105178571D02*
X158642856Y-103678571D01*
X157928570Y-103678571D01*
X157357142Y-105178571D02*
X157357142Y-103678571D01*
X156785714Y-103678571D01*
X156642856Y-103750000D01*
X156571428Y-103821429D01*
X156499999Y-103964286D01*
X156499999Y-104178571D01*
X156571428Y-104321429D01*
X156642856Y-104392857D01*
X156785714Y-104464286D01*
X157357142Y-104464286D01*
X154999999Y-105035714D02*
X155071428Y-105107143D01*
X155285714Y-105178571D01*
X155428571Y-105178571D01*
X155642856Y-105107143D01*
X155785714Y-104964286D01*
X155857142Y-104821429D01*
X155928571Y-104535714D01*
X155928571Y-104321429D01*
X155857142Y-104035714D01*
X155785714Y-103892857D01*
X155642856Y-103750000D01*
X155428571Y-103678571D01*
X155285714Y-103678571D01*
X155071428Y-103750000D01*
X154999999Y-103821429D01*
X153571428Y-105178571D02*
X154428571Y-105178571D01*
X153999999Y-105178571D02*
X153999999Y-103678571D01*
X154142856Y-103892857D01*
X154285714Y-104035714D01*
X154428571Y-104107143D01*
X153000000Y-103821429D02*
X152928571Y-103750000D01*
X152785714Y-103678571D01*
X152428571Y-103678571D01*
X152285714Y-103750000D01*
X152214285Y-103821429D01*
X152142857Y-103964286D01*
X152142857Y-104107143D01*
X152214285Y-104321429D01*
X153071428Y-105178571D01*
X152142857Y-105178571D01*
X150571429Y-104178571D02*
X150000000Y-104178571D01*
X150357143Y-103678571D02*
X150357143Y-104964286D01*
X150285715Y-105107143D01*
X150142857Y-105178571D01*
X150000000Y-105178571D01*
X149285714Y-105178571D02*
X149428572Y-105107143D01*
X149500000Y-105035714D01*
X149571429Y-104892857D01*
X149571429Y-104464286D01*
X149500000Y-104321429D01*
X149428572Y-104250000D01*
X149285714Y-104178571D01*
X149071429Y-104178571D01*
X148928572Y-104250000D01*
X148857143Y-104321429D01*
X148785714Y-104464286D01*
X148785714Y-104892857D01*
X148857143Y-105035714D01*
X148928572Y-105107143D01*
X149071429Y-105178571D01*
X149285714Y-105178571D01*
X147000000Y-105178571D02*
X147000000Y-103678571D01*
X146642857Y-103678571D01*
X146428572Y-103750000D01*
X146285714Y-103892857D01*
X146214286Y-104035714D01*
X146142857Y-104321429D01*
X146142857Y-104535714D01*
X146214286Y-104821429D01*
X146285714Y-104964286D01*
X146428572Y-105107143D01*
X146642857Y-105178571D01*
X147000000Y-105178571D01*
X145500000Y-105178571D02*
X145500000Y-103678571D01*
X144785714Y-105178571D02*
X144785714Y-103678571D01*
X144214286Y-103678571D01*
X144071428Y-103750000D01*
X144000000Y-103821429D01*
X143928571Y-103964286D01*
X143928571Y-104178571D01*
X144000000Y-104321429D01*
X144071428Y-104392857D01*
X144214286Y-104464286D01*
X144785714Y-104464286D01*
X141357143Y-105178571D02*
X142214286Y-105178571D01*
X141785714Y-105178571D02*
X141785714Y-103678571D01*
X141928571Y-103892857D01*
X142071429Y-104035714D01*
X142214286Y-104107143D01*
X140714286Y-105035714D02*
X140642858Y-105107143D01*
X140714286Y-105178571D01*
X140785715Y-105107143D01*
X140714286Y-105035714D01*
X140714286Y-105178571D01*
X139714286Y-103678571D02*
X139571429Y-103678571D01*
X139428572Y-103750000D01*
X139357143Y-103821429D01*
X139285714Y-103964286D01*
X139214286Y-104250000D01*
X139214286Y-104607143D01*
X139285714Y-104892857D01*
X139357143Y-105035714D01*
X139428572Y-105107143D01*
X139571429Y-105178571D01*
X139714286Y-105178571D01*
X139857143Y-105107143D01*
X139928572Y-105035714D01*
X140000000Y-104892857D01*
X140071429Y-104607143D01*
X140071429Y-104250000D01*
X140000000Y-103964286D01*
X139928572Y-103821429D01*
X139857143Y-103750000D01*
X139714286Y-103678571D01*
X138285715Y-103678571D02*
X138142858Y-103678571D01*
X138000001Y-103750000D01*
X137928572Y-103821429D01*
X137857143Y-103964286D01*
X137785715Y-104250000D01*
X137785715Y-104607143D01*
X137857143Y-104892857D01*
X137928572Y-105035714D01*
X138000001Y-105107143D01*
X138142858Y-105178571D01*
X138285715Y-105178571D01*
X138428572Y-105107143D01*
X138500001Y-105035714D01*
X138571429Y-104892857D01*
X138642858Y-104607143D01*
X138642858Y-104250000D01*
X138571429Y-103964286D01*
X138500001Y-103821429D01*
X138428572Y-103750000D01*
X138285715Y-103678571D01*
M02*
