G04 #@! TF.FileFunction,Copper,L2,Bot,Signal*
%FSLAX46Y46*%
G04 Gerber Fmt 4.6, Leading zero omitted, Abs format (unit mm)*
G04 Created by KiCad (PCBNEW 4.0.1-stable) date Sat 02 Jan 2016 05:35:57 PM EST*
%MOMM*%
G01*
G04 APERTURE LIST*
%ADD10C,0.100000*%
%ADD11C,0.300000*%
%ADD12R,1.727200X2.032000*%
%ADD13O,1.727200X2.032000*%
G04 APERTURE END LIST*
D10*
D11*
X144250000Y-107428571D02*
X143678571Y-107428571D01*
X144035714Y-106928571D02*
X144035714Y-108214286D01*
X143964286Y-108357143D01*
X143821428Y-108428571D01*
X143678571Y-108428571D01*
X143178571Y-108428571D02*
X143178571Y-107428571D01*
X143178571Y-107714286D02*
X143107143Y-107571429D01*
X143035714Y-107500000D01*
X142892857Y-107428571D01*
X142750000Y-107428571D01*
X142035714Y-108428571D02*
X142178572Y-108357143D01*
X142250000Y-108285714D01*
X142321429Y-108142857D01*
X142321429Y-107714286D01*
X142250000Y-107571429D01*
X142178572Y-107500000D01*
X142035714Y-107428571D01*
X141821429Y-107428571D01*
X141678572Y-107500000D01*
X141607143Y-107571429D01*
X141535714Y-107714286D01*
X141535714Y-108142857D01*
X141607143Y-108285714D01*
X141678572Y-108357143D01*
X141821429Y-108428571D01*
X142035714Y-108428571D01*
X140250000Y-107428571D02*
X140250000Y-108428571D01*
X140892857Y-107428571D02*
X140892857Y-108214286D01*
X140821429Y-108357143D01*
X140678571Y-108428571D01*
X140464286Y-108428571D01*
X140321429Y-108357143D01*
X140250000Y-108285714D01*
X138892857Y-107428571D02*
X138892857Y-108642857D01*
X138964286Y-108785714D01*
X139035714Y-108857143D01*
X139178571Y-108928571D01*
X139392857Y-108928571D01*
X139535714Y-108857143D01*
X138892857Y-108357143D02*
X139035714Y-108428571D01*
X139321428Y-108428571D01*
X139464286Y-108357143D01*
X139535714Y-108285714D01*
X139607143Y-108142857D01*
X139607143Y-107714286D01*
X139535714Y-107571429D01*
X139464286Y-107500000D01*
X139321428Y-107428571D01*
X139035714Y-107428571D01*
X138892857Y-107500000D01*
X138178571Y-107428571D02*
X138178571Y-108428571D01*
X138178571Y-107571429D02*
X138107143Y-107500000D01*
X137964285Y-107428571D01*
X137750000Y-107428571D01*
X137607143Y-107500000D01*
X137535714Y-107642857D01*
X137535714Y-108428571D01*
X136607142Y-108428571D02*
X136750000Y-108357143D01*
X136821428Y-108285714D01*
X136892857Y-108142857D01*
X136892857Y-107714286D01*
X136821428Y-107571429D01*
X136750000Y-107500000D01*
X136607142Y-107428571D01*
X136392857Y-107428571D01*
X136250000Y-107500000D01*
X136178571Y-107571429D01*
X136107142Y-107714286D01*
X136107142Y-108142857D01*
X136178571Y-108285714D01*
X136250000Y-108357143D01*
X136392857Y-108428571D01*
X136607142Y-108428571D01*
X134821428Y-107428571D02*
X134821428Y-108428571D01*
X135464285Y-107428571D02*
X135464285Y-108214286D01*
X135392857Y-108357143D01*
X135249999Y-108428571D01*
X135035714Y-108428571D01*
X134892857Y-108357143D01*
X134821428Y-108285714D01*
X134321428Y-107428571D02*
X133749999Y-107428571D01*
X134107142Y-108428571D02*
X134107142Y-107142857D01*
X134035714Y-107000000D01*
X133892856Y-106928571D01*
X133749999Y-106928571D01*
D12*
X135300000Y-100950000D03*
D13*
X137840000Y-100950000D03*
X140380000Y-100950000D03*
X142920000Y-100950000D03*
X145460000Y-100950000D03*
X148000000Y-100950000D03*
X150540000Y-100950000D03*
X153080000Y-100950000D03*
X155620000Y-100950000D03*
X158160000Y-100950000D03*
X160700000Y-100950000D03*
X163240000Y-100950000D03*
M02*
