G04 #@! TF.FileFunction,Legend,Top*
%FSLAX46Y46*%
G04 Gerber Fmt 4.6, Leading zero omitted, Abs format (unit mm)*
G04 Created by KiCad (PCBNEW 4.0.1-stable) date Sat 02 Jan 2016 05:35:57 PM EST*
%MOMM*%
G01*
G04 APERTURE LIST*
%ADD10C,0.100000*%
%ADD11C,0.300000*%
%ADD12C,0.150000*%
G04 APERTURE END LIST*
D10*
D11*
X154250000Y-106678571D02*
X154821429Y-106678571D01*
X154464286Y-106178571D02*
X154464286Y-107464286D01*
X154535714Y-107607143D01*
X154678572Y-107678571D01*
X154821429Y-107678571D01*
X155321429Y-107678571D02*
X155321429Y-106678571D01*
X155321429Y-106964286D02*
X155392857Y-106821429D01*
X155464286Y-106750000D01*
X155607143Y-106678571D01*
X155750000Y-106678571D01*
X156464286Y-107678571D02*
X156321428Y-107607143D01*
X156250000Y-107535714D01*
X156178571Y-107392857D01*
X156178571Y-106964286D01*
X156250000Y-106821429D01*
X156321428Y-106750000D01*
X156464286Y-106678571D01*
X156678571Y-106678571D01*
X156821428Y-106750000D01*
X156892857Y-106821429D01*
X156964286Y-106964286D01*
X156964286Y-107392857D01*
X156892857Y-107535714D01*
X156821428Y-107607143D01*
X156678571Y-107678571D01*
X156464286Y-107678571D01*
X158250000Y-106678571D02*
X158250000Y-107678571D01*
X157607143Y-106678571D02*
X157607143Y-107464286D01*
X157678571Y-107607143D01*
X157821429Y-107678571D01*
X158035714Y-107678571D01*
X158178571Y-107607143D01*
X158250000Y-107535714D01*
X159607143Y-106678571D02*
X159607143Y-107892857D01*
X159535714Y-108035714D01*
X159464286Y-108107143D01*
X159321429Y-108178571D01*
X159107143Y-108178571D01*
X158964286Y-108107143D01*
X159607143Y-107607143D02*
X159464286Y-107678571D01*
X159178572Y-107678571D01*
X159035714Y-107607143D01*
X158964286Y-107535714D01*
X158892857Y-107392857D01*
X158892857Y-106964286D01*
X158964286Y-106821429D01*
X159035714Y-106750000D01*
X159178572Y-106678571D01*
X159464286Y-106678571D01*
X159607143Y-106750000D01*
X160321429Y-106678571D02*
X160321429Y-107678571D01*
X160321429Y-106821429D02*
X160392857Y-106750000D01*
X160535715Y-106678571D01*
X160750000Y-106678571D01*
X160892857Y-106750000D01*
X160964286Y-106892857D01*
X160964286Y-107678571D01*
X161892858Y-107678571D02*
X161750000Y-107607143D01*
X161678572Y-107535714D01*
X161607143Y-107392857D01*
X161607143Y-106964286D01*
X161678572Y-106821429D01*
X161750000Y-106750000D01*
X161892858Y-106678571D01*
X162107143Y-106678571D01*
X162250000Y-106750000D01*
X162321429Y-106821429D01*
X162392858Y-106964286D01*
X162392858Y-107392857D01*
X162321429Y-107535714D01*
X162250000Y-107607143D01*
X162107143Y-107678571D01*
X161892858Y-107678571D01*
X163678572Y-106678571D02*
X163678572Y-107678571D01*
X163035715Y-106678571D02*
X163035715Y-107464286D01*
X163107143Y-107607143D01*
X163250001Y-107678571D01*
X163464286Y-107678571D01*
X163607143Y-107607143D01*
X163678572Y-107535714D01*
X164178572Y-106678571D02*
X164750001Y-106678571D01*
X164392858Y-107678571D02*
X164392858Y-106392857D01*
X164464286Y-106250000D01*
X164607144Y-106178571D01*
X164750001Y-106178571D01*
D12*
X136570000Y-99680000D02*
X164510000Y-99680000D01*
X164510000Y-99680000D02*
X164510000Y-102220000D01*
X164510000Y-102220000D02*
X136570000Y-102220000D01*
X133750000Y-99400000D02*
X135300000Y-99400000D01*
X136570000Y-99680000D02*
X136570000Y-102220000D01*
X135300000Y-102500000D02*
X133750000Y-102500000D01*
X133750000Y-102500000D02*
X133750000Y-99400000D01*
X141511905Y-108952381D02*
X141511905Y-107952381D01*
X141892858Y-107952381D01*
X141988096Y-108000000D01*
X142035715Y-108047619D01*
X142083334Y-108142857D01*
X142083334Y-108285714D01*
X142035715Y-108380952D01*
X141988096Y-108428571D01*
X141892858Y-108476190D01*
X141511905Y-108476190D01*
X143035715Y-108952381D02*
X142464286Y-108952381D01*
X142750000Y-108952381D02*
X142750000Y-107952381D01*
X142654762Y-108095238D01*
X142559524Y-108190476D01*
X142464286Y-108238095D01*
X133511905Y-103952381D02*
X133511905Y-102952381D01*
X133892858Y-102952381D01*
X133988096Y-103000000D01*
X134035715Y-103047619D01*
X134083334Y-103142857D01*
X134083334Y-103285714D01*
X134035715Y-103380952D01*
X133988096Y-103428571D01*
X133892858Y-103476190D01*
X133511905Y-103476190D01*
X134464286Y-103047619D02*
X134511905Y-103000000D01*
X134607143Y-102952381D01*
X134845239Y-102952381D01*
X134940477Y-103000000D01*
X134988096Y-103047619D01*
X135035715Y-103142857D01*
X135035715Y-103238095D01*
X134988096Y-103380952D01*
X134416667Y-103952381D01*
X135035715Y-103952381D01*
M02*
