G04 #@! TF.FileFunction,Copper,L1,Top,Signal*
%FSLAX46Y46*%
G04 Gerber Fmt 4.6, Leading zero omitted, Abs format (unit mm)*
G04 Created by KiCad (PCBNEW 4.0.1-stable) date Sat 02 Jan 2016 05:35:57 PM EST*
%MOMM*%
G01*
G04 APERTURE LIST*
%ADD10C,0.100000*%
%ADD11R,0.300000X1.250000*%
%ADD12R,2.000000X3.000000*%
%ADD13R,1.727200X2.032000*%
%ADD14O,1.727200X2.032000*%
%ADD15C,0.160000*%
G04 APERTURE END LIST*
D10*
D11*
X148251100Y-105003600D03*
X148751100Y-105003600D03*
X147751100Y-105003600D03*
X147251100Y-105003600D03*
X146751100Y-105003600D03*
X146251100Y-105003600D03*
X145751100Y-105003600D03*
X149251100Y-105003600D03*
X149751100Y-105003600D03*
X150251100Y-105003600D03*
X150751100Y-105003600D03*
X151251100Y-105003600D03*
D12*
X144211100Y-107328600D03*
X152791100Y-107328600D03*
D13*
X135300000Y-100950000D03*
D14*
X137840000Y-100950000D03*
X140380000Y-100950000D03*
X142920000Y-100950000D03*
X145460000Y-100950000D03*
X148000000Y-100950000D03*
X150540000Y-100950000D03*
X153080000Y-100950000D03*
X155620000Y-100950000D03*
X158160000Y-100950000D03*
X160700000Y-100950000D03*
X163240000Y-100950000D03*
D15*
X148000000Y-100950000D02*
X148000000Y-103000000D01*
X148251100Y-103251100D02*
X148251100Y-105003600D01*
X148000000Y-103000000D02*
X148251100Y-103251100D01*
X148751100Y-105003600D02*
X148751100Y-102738900D01*
X148751100Y-102738900D02*
X150540000Y-100950000D01*
X145460000Y-100950000D02*
X145460000Y-102760000D01*
X147751100Y-103651100D02*
X147751100Y-105003600D01*
X147100000Y-103000000D02*
X147751100Y-103651100D01*
X145700000Y-103000000D02*
X147100000Y-103000000D01*
X145460000Y-102760000D02*
X145700000Y-103000000D01*
X142920000Y-100950000D02*
X142920000Y-103320000D01*
X147251100Y-103751100D02*
X147251100Y-105003600D01*
X146850000Y-103350000D02*
X147251100Y-103751100D01*
X142950000Y-103350000D02*
X146850000Y-103350000D01*
X142920000Y-103320000D02*
X142950000Y-103350000D01*
X140380000Y-100950000D02*
X140380000Y-102980000D01*
X146751100Y-103901100D02*
X146751100Y-105003600D01*
X146600000Y-103750000D02*
X146751100Y-103901100D01*
X141150000Y-103750000D02*
X146600000Y-103750000D01*
X140380000Y-102980000D02*
X141150000Y-103750000D01*
X137840000Y-100950000D02*
X137840000Y-103390000D01*
X146251100Y-104151100D02*
X146251100Y-105003600D01*
X146200000Y-104100000D02*
X146251100Y-104151100D01*
X138550000Y-104100000D02*
X146200000Y-104100000D01*
X137840000Y-103390000D02*
X138550000Y-104100000D01*
X135300000Y-100950000D02*
X135300000Y-104800000D01*
X135503600Y-105003600D02*
X145751100Y-105003600D01*
X135300000Y-104800000D02*
X135503600Y-105003600D01*
X153080000Y-100950000D02*
X153080000Y-101920000D01*
X153080000Y-101920000D02*
X152150000Y-102850000D01*
X152150000Y-102850000D02*
X149600000Y-102850000D01*
X149600000Y-102850000D02*
X149251100Y-103198900D01*
X149251100Y-103198900D02*
X149251100Y-105003600D01*
X155620000Y-100950000D02*
X155620000Y-102430000D01*
X149751100Y-103548900D02*
X149751100Y-105003600D01*
X150129998Y-103170002D02*
X149751100Y-103548900D01*
X154879998Y-103170002D02*
X150129998Y-103170002D01*
X155620000Y-102430000D02*
X154879998Y-103170002D01*
X158160000Y-100950000D02*
X158160000Y-102990000D01*
X150251100Y-103748900D02*
X150251100Y-105003600D01*
X150450000Y-103550000D02*
X150251100Y-103748900D01*
X157600000Y-103550000D02*
X150450000Y-103550000D01*
X158160000Y-102990000D02*
X157600000Y-103550000D01*
X160700000Y-100950000D02*
X160700000Y-103650000D01*
X150751100Y-104098900D02*
X150751100Y-105003600D01*
X150950000Y-103900000D02*
X150751100Y-104098900D01*
X160450000Y-103900000D02*
X150950000Y-103900000D01*
X160700000Y-103650000D02*
X160450000Y-103900000D01*
X163240000Y-100950000D02*
X163240000Y-104760000D01*
X162996400Y-105003600D02*
X151251100Y-105003600D01*
X163240000Y-104760000D02*
X162996400Y-105003600D01*
M02*
